# AST/ASF file generated using VICON BodyLanguage
# -----------------------------------------------
:version 1.10
:name VICON
:units
  mass 1.0
  length 0.45
  angle deg
:documentation
   .ast/.asf automatically generated from VICON data using
   VICON BodyBuilder and BodyLanguage model FoxedUp or BRILLIANT.MOD
:root
   order TX TY TZ RX RY RZ
   axis XYZ
   position 0 0 0  
   orientation 0 0 0 
:bonedata
  begin
     id 1 
     name lhipjoint
     direction 0.62366 -0.717238 0.310833 
     length 2.53602 
     axis 0 0 0  XYZ
  end
  begin
     id 2 
     name lfemur
     direction 0.34202 -0.939693 0  
     length 7.40817  
     axis 0 0 20  XYZ
    dof rx ry rz
    limits (-160.0 20.0)
           (-70.0 70.0)
           (-60.0 70.0)
  end
  begin
     id 3 
     name ltibia
     direction 0.34202 -0.939693 0   
     length 7.7045   
     axis 0 0 20   XYZ
    dof rx
    limits (-10.0 170.0)
  end
  begin
     id 4 
     name lfoot
     direction 0.0673888 -0.185149 0.980397   
     length 2.09456   
     axis -90 7.62852e-016 20   XYZ
    dof rx rz
    limits (-45.0 90.0)
           (-70.0 20.0)
  end
  begin
     id 5 
     name ltoes
     direction 1.53575e-011 -4.21994e-011 1   
     length 1.05543   
     axis -90 7.62852e-016 20   XYZ
    dof rx
    limits (-90.0 20.0)
  end
  begin
     id 6 
     name rhipjoint
     direction -0.489018 -0.800347 0.346851   
     length 2.27268  
     axis 0 0 0  XYZ 
  end
  begin
     id 7 
     name rfemur
     direction -0.34202 -0.939693 0   
     length 7.55487   
     axis 0 0 -20   XYZ
    dof rx ry rz
    limits (-160.0 20.0)
           (-70.0 70.0)
           (-70.0 60.0)
  end
  begin
     id 8 
     name rtibia
     direction -0.34202 -0.939693 0   
     length 7.78969   
     axis 0 0 -20   XYZ
    dof rx
    limits (-10.0 170.0)
 end
 begin
     id 9 
     name rfoot
     direction -0.0859318 -0.236096 0.967923   
     length 2.19143  
     axis -90 -7.62852e-016 -20   XYZ
    dof rx rz
    limits (-45.0 90.0)
           (-20.0 70.0)
  end
  begin
     id 10 
     name rtoes
     direction -1.53538e-011 -4.21989e-011 1   
     length 1.09845   
     axis -90 -7.62852e-016 -20   XYZ
    dof rx
    limits (-90.0 20.0)
  end
  begin
     id 11 
     name lowerback
     direction -0.00762546 0.998978 -0.0445553   
     length 1.98161   
     axis 0 0 0   XYZ
    dof rx ry rz
    limits (-20.0 45.0)
           (-30.0 30.0)
           (-30.0 30.0)
  end
  begin
     id 12 
     name upperback
     direction 0.0422361 0.998867 -0.0219156   
     length 1.97558   
     axis 0 0 0   XYZ
    dof rx ry rz
    limits (-20.0 45.0)
           (-30.0 30.0)
           (-30.0 30.0)
  end
  begin
     id 13 
     name thorax
     direction 0.0442465 0.999021 7.47603e-005   
     length 1.97799   
     axis 0 0 0   XYZ
    dof rx ry rz
    limits (-20.0 45.0)
           (-30.0 30.0)
           (-30.0 30.0)
  end
  begin
     id 14 
     name lowerneck
     direction 0.00312169 0.984641 0.174564   
     length 1.78995   
     axis 0 0 0   XYZ
    dof rx ry rz
    limits (-20.0 45.0)
           (-30.0 30.0)
           (-30.0 30.0)
  end
  begin
     id 15 
     name upperneck
     direction -0.0383028 0.985255 -0.166749   
     length 1.83053   
     axis 0 0 0   XYZ
    dof rx ry rz
    limits (-20.0 45.0)
           (-30.0 30.0)
           (-30.0 30.0)
  end
  begin
     id 16
     name head
     direction -0.0129546 0.997059 -0.0755386  
     length 1.84088  
     axis 0 0 0   XYZ
    dof rx ry rz
    limits (-20.0 45.0)
           (-30.0 30.0)
           (-30.0 30.0)
  end
  begin
     id 17 
     name lclavicle
     direction 0.912857 0.370519 -0.171488  
     length 3.51279  
     axis 0 0 0   XYZ
    dof ry rz
    limits (-20.0 10.0)
           (0.0 20.0)
  end
  begin
     id 18 
     name lhumerus
     direction 1 -4.48962e-011 3.64361e-027   
     length 4.95663   
     axis 180 -30 -90   XYZ
    dof rx ry rz
    limits (-60.0 90.0)
           (-90.0 90.0)
           (-90.0 90.0)
  end
  begin
     id 19
     name lradius
     direction 1 -4.48974e-011 5.97202e-027   
     length 3.38177   
     axis 180 -30 -90   XYZ
    dof rx
    limits (-10.0 170.0)
  end
  begin
     id 20
     name lwrist
     direction 1 -4.4896e-011 9.83288e-027   
     length 1.69088   
     axis -9.31221e-015 90 90   XYZ
    dof ry
    limits (-180.0 0.0)
 end
  begin
     id 21 
     name lhand
     direction 1 -4.4902e-011 1.96551e-026   
     length 0.662909   
     axis -1.25475e-014 90 90   XYZ
    dof rx rz
    limits (-90.0 90.0)
           (-45.0 45.0)
  end
  begin
     id 22 
     name lfingers
     direction 1 -4.48971e-011 3.93277e-026   
     length 0.534454   
     axis -2.50945e-014 90 90   XYZ
    dof rx
    limits (0.0 90.0)
  end
  begin
     id 23
     name lthumb
     direction 0.707107 -6.34933e-011 0.707107   
     length 0.767373   
     axis -90 45 -4.80359e-014   XYZ
    dof rx rz
    limits (-45.0 45.0)
           (-45.0 45.0)
  end
  begin
     id 24 
     name rclavicle
     direction -0.900919 0.395364 -0.178976   
     length 3.40627  
     axis 0 0 0   XYZ 
    dof ry rz
    limits (-10.0 20.0)
           (-20.0 0.0)
  end
  begin
     id 25 
     name rhumerus
     direction -1 -4.48969e-011 1.03875e-027  
     length 5.08365   
     axis 180 30 90   XYZ
    dof rx ry rz
    limits (-90.0 60.0)
           (-90.0 90.0)
           (-90.0 90.0)
  end
  begin
     id 26 
     name rradius
     direction -1 -4.48951e-011 5.02733e-027   
     length 3.35984   
     axis 180 30 90   XYZ
    dof rx
    limits (-10.0 170.0)
  end
  begin
     id 27 
     name rwrist
     direction -1 -4.49011e-011 9.82828e-027   
     length 1.67992   
     axis -9.31221e-015 -90 -90   XYZ
    dof ry
    limits (-180.0 0.0)
  end
  begin
     id 28
     name rhand
     direction -1 -4.48894e-011 1.96774e-026   
     length 0.820764   
     axis -1.25475e-014 -90 -90   XYZ
    dof rx rz
    limits (-90.0 90.0)
           (-45.0 45.0)
  end
  begin
     id 29
     name rfingers
     direction -1 -4.49095e-011 3.92833e-026   
     length 0.661721   
     axis -2.50945e-014 -90 -90   XYZ
    dof rx
    limits (0.0 90.0)
  end
  begin
     id 30
     name rthumb
     direction -0.707107 -6.34881e-011 0.707107   
     length 0.950103   
     axis -90 -45 4.80359e-014   XYZ
    dof rx rz
    limits (-45.0 45.0)
           (-45.0 45.0)
  end
:hierarchy
  begin
    root lhipjoint rhipjoint lowerback
    lhipjoint lfemur
    lfemur ltibia
    ltibia lfoot
    lfoot ltoes
    rhipjoint rfemur
    rfemur rtibia
    rtibia rfoot
    rfoot rtoes
    lowerback upperback
    upperback thorax
    thorax lowerneck lclavicle rclavicle
    lowerneck upperneck
    upperneck head
    lclavicle lhumerus
    lhumerus lradius
    lradius lwrist
    lwrist lhand lthumb
    lhand lfingers
    rclavicle rhumerus
    rhumerus rradius
    rradius rwrist
    rwrist rhand rthumb
    rhand rfingers
  end

#!OML:ASF I:\golf\golf\golf 2\Subject 1\2002-09-07\Subject1.ASF
:FULLY-SPECIFIED
:DEGREES
88
root -7.08636 17.642 1.95125 -71.8176 87.2089 -87.6689
lowerback 1.81165 1.9594 -1.95871
upperback 1.9862 2.64532 4.16833
thorax 0.742229 1.30981 5.37098
lowerneck -14.0619 -2.19654 1.29687
upperneck 42.4461 0.340409 -3.831
head 18.2824 0.547727 -1.744
rclavicle -1.19271e-014 7.95139e-015
rhumerus -5.74135 -1.45383 -102.187
rradius 20.2894
rwrist -36.5344
rhand -14.1173 -12.4323
rfingers 7.12502
rthumb 12.016 -42.0673
lclavicle -1.19271e-014 7.95139e-015
lhumerus -9.33572 -36.998 109.402
lradius 23.6797
lwrist 38.2177
lhand -11.5598 72.0403
lfingers 7.12502
lthumb -165.519 78.485
rfemur -30.1969 -2.99392 10.437
rtibia 31.4903
rfoot -10.4928 -7.92429
rtoes -7.35005
lfemur -29.5758 8.30019 -8.58638
ltibia 32.336
lfoot -13.5083 -3.21884
ltoes -21.5737
89
root -7.08679 17.6417 1.95234 -73.1261 87.2233 -89.0014
lowerback 1.807 1.94654 -1.91528
upperback 1.97074 2.62813 4.13738
thorax 0.733961 1.30183 5.31393
lowerneck -14.0479 -2.21215 1.31177
upperneck 42.4301 0.306587 -3.82608
head 18.2668 0.53679 -1.75019
rclavicle -8.34896e-015 -3.97569e-015
rhumerus -5.7456 -1.54944 -102.204
rradius 20.2855
rwrist -36.6409
rhand -13.9478 -12.4284
rfingers 7.12502
rthumb 12.1795 -42.0538
lclavicle -8.34896e-015 -3.97569e-015
lhumerus -9.43748 -37.2792 109.456
lradius 23.7454
lwrist 38.4146
lhand -11.3483 71.6909
lfingers 7.12502
lthumb -165.315 78.8491
rfemur -30.1998 -3.0187 10.4328
rtibia 31.4716
rfoot -10.4858 -8.02165
rtoes -7.74213
lfemur -29.6069 8.26381 -8.58209
ltibia 32.3465
lfoot -13.5395 -3.26685
ltoes -21.4309
90
root -7.08817 17.6424 1.95375 -74.654 87.256 -90.5497
lowerback 1.82772 1.93843 -1.97108
upperback 1.94758 2.61713 4.14985
thorax 0.696748 1.29675 5.35757
lowerneck -14.0426 -2.23718 1.32272
upperneck 42.4468 0.287349 -3.86878
head 18.2746 0.52671 -1.77601
rclavicle 1.90833e-014 9.54166e-015
rhumerus -5.80096 -1.55922 -102.134
rradius 20.3101
rwrist -36.7298
rhand -13.8375 -12.3713
rfingers 7.12502
rthumb 12.2858 -41.9904
lclavicle 1.90833e-014 9.54166e-015
lhumerus -9.48276 -37.2688 109.577
lradius 23.7221
lwrist 38.3685
lhand -11.1587 71.2777
lfingers 7.12502
lthumb -165.132 79.2757
rfemur -30.1849 -3.08895 10.4198
rtibia 31.4169
rfoot -10.4803 -8.02512
rtoes -7.47873
lfemur -29.6513 8.19152 -8.59261
ltibia 32.3872
lfoot -13.5448 -3.31267
ltoes -21.1474
91
root -7.08809 17.6504 1.95574 -75.0166 87.265 -90.901
lowerback 1.84232 1.95785 -2.02003
upperback 1.95483 2.64267 4.16072
thorax 0.690715 1.30914 5.39593
lowerneck -14.0846 -2.26455 1.23761
upperneck 42.4905 0.257126 -3.81334
head 18.312 0.510014 -1.7412
rclavicle -4.41302e-014 -6.52014e-014
rhumerus -5.85147 -1.45605 -102.047
rradius 20.3697
rwrist -36.9194
rhand -13.834 -12.304
rfingers 7.12502
rthumb 12.2891 -41.9229
lclavicle -4.41302e-014 -6.52014e-014
lhumerus -9.46113 -37.2514 109.639
lradius 23.6562
lwrist 37.9087
lhand -11.2973 71.4113
lfingers 7.12502
lthumb -165.266 79.1324
rfemur -30.1268 -3.1321 10.431
rtibia 31.3443
rfoot -10.4729 -7.92615
rtoes -7.07988
lfemur -29.6731 8.12378 -8.55602
ltibia 32.445
lfoot -13.4613 -3.5014
ltoes -19.9961
92
root -7.08817 17.6577 1.95701 -75.47 87.2629 -91.363
lowerback 1.82947 1.9527 -2.01215
upperback 1.96332 2.63563 4.15366
thorax 0.708084 1.30519 5.38492
lowerneck -14.1217 -2.27215 1.18435
upperneck 42.5139 0.254092 -3.78541
head 18.337 0.504117 -1.7199
rclavicle 2.78299e-015 3.10104e-014
rhumerus -5.87663 -1.35792 -102.024
rradius 20.4177
rwrist -37.1342
rhand -13.9123 -12.3326
rfingers 7.12502
rthumb 12.2137 -41.956
lclavicle 2.78299e-015 3.10104e-014
lhumerus -9.4117 -37.1754 109.631
lradius 23.5432
lwrist 37.3441
lhand -11.421 71.582
lfingers 7.12502
lthumb -165.385 78.953
rfemur -30.0935 -3.22402 10.4687
rtibia 31.277
rfoot -10.4315 -7.85248
rtoes -7.32465
lfemur -29.7144 8.07009 -8.51229
ltibia 32.4882
lfoot -13.4064 -3.67379
ltoes -19.0549
93
root -7.08955 17.6574 1.95654 -76.2596 87.2663 -92.1863
lowerback 1.80628 1.93664 -1.98404
upperback 1.95705 2.61422 4.13941
thorax 0.718746 1.29451 5.35515
lowerneck -14.0886 -2.28563 1.21913
upperneck 42.4694 0.238454 -3.84056
head 18.2996 0.494487 -1.75402
rclavicle -6.75868e-015 2.78299e-014
rhumerus -5.88404 -1.33609 -102.046
rradius 20.4524
rwrist -37.3551
rhand -14.1094 -12.394
rfingers 7.12502
rthumb 12.0236 -42.0287
lclavicle -6.75868e-015 2.78299e-014
lhumerus -9.44052 -37.2607 109.643
lradius 23.5303
lwrist 37.099
lhand -11.4629 71.6101
lfingers 7.12502
lthumb -165.426 78.9219
rfemur -30.1231 -3.33446 10.4943
rtibia 31.2645
rfoot -10.4413 -7.83416
rtoes -7.37914
lfemur -29.7651 8.01869 -8.50899
ltibia 32.4901
lfoot -13.4117 -3.64946
ltoes -19.1034
94
root -7.09011 17.6565 1.95683 -77.1132 87.2601 -93.0286
lowerback 1.80912 1.92505 -1.97952
upperback 1.97129 2.59866 4.1387
thorax 0.733724 1.2863 5.35243
lowerneck -14.0647 -2.29136 1.2397
upperneck 42.4255 0.219443 -3.85079
head 18.2649 0.487007 -1.765
rclavicle 3.97569e-014 7.71285e-014
rhumerus -5.87486 -1.28086 -102.074
rradius 20.4938
rwrist -37.6513
rhand -14.3609 -12.3914
rfingers 7.12502
rthumb 11.7811 -42.0401
lclavicle 3.97569e-014 7.71285e-014
lhumerus -9.48587 -37.4936 109.674
lradius 23.5889
lwrist 37.0168
lhand -11.5668 71.6724
lfingers 7.12502
lthumb -165.526 78.8524
rfemur -30.1174 -3.35062 10.5029
rtibia 31.2932
rfoot -10.4937 -7.87275
rtoes -7.03853
lfemur -29.7542 8.0037 -8.505
ltibia 32.4698
lfoot -13.4107 -3.61832
ltoes -19.4228
95
root -7.09029 17.6499 1.95917 -77.6272 87.2796 -93.499
lowerback 1.83341 1.90004 -2.07213
upperback 1.99607 2.5644 4.16747
thorax 0.744273 1.26767 5.43579
lowerneck -14.0623 -2.28471 1.19739
upperneck 42.4277 0.238302 -3.83714
head 18.2671 0.489247 -1.74745
rclavicle -2.62396e-014 -5.88403e-014
rhumerus -5.89955 -1.13373 -102.063
rradius 20.5196
rwrist -37.8346
rhand -14.4756 -12.3311
rfingers 7.12502
rthumb 11.6704 -41.9861
lclavicle -2.62396e-014 -5.88403e-014
lhumerus -9.51567 -37.6774 109.714
lradius 23.6721
lwrist 37.2175
lhand -11.5966 71.421
lfingers 7.12502
lthumb -165.554 79.1018
rfemur -30.0722 -3.41724 10.4947
rtibia 31.3001
rfoot -10.4588 -7.83413
rtoes -7.23772
lfemur -29.7091 8.12073 -8.57576
ltibia 32.4586
lfoot -13.4949 -3.519
ltoes -20.7413
